<?xml version="1.0" encoding="utf-8"?>
<!-- Generator: Adobe Illustrator 21.0.0, SVG Export Plug-In . SVG Version: 6.00 Build 0)  -->
<svg version="1.1" id="Camada_1" xmlns="http://www.w3.org/2000/svg" xmlns:xlink="http://www.w3.org/1999/xlink" x="0px" y="0px"
	 viewBox="0 0 24 24" style="enable-background:new 0 0 24 24;" xml:space="preserve">
<style type="text/css">
	.st0{fill:url(#SVGID_1_);}
	.st1{fill:url(#SVGID_2_);}
	.st2{fill:url(#SVGID_3_);}
	.st3{fill:url(#SVGID_4_);}
</style>
<linearGradient id="SVGID_1_" gradientUnits="userSpaceOnUse" x1="11.995" y1="21.5" x2="11.995" y2="4.855" gradientTransform="matrix(1 0 0 -1 0 26)">
	<stop  offset="0" style="stop-color:#DB671A"/>
	<stop  offset="1" style="stop-color:#F9951E"/>
</linearGradient>
<path class="st0" d="M17.5,4.5c-1.9,0-4.1,0.4-5.5,1.5c-1.4-1.1-3.6-1.5-5.5-1.5c-1.4,0-3,0.2-4.3,0.8C1.5,5.6,1,6.3,1,7.1v11.3
	c0,1.3,1.2,2.3,2.5,1.9c1-0.3,2-0.4,3-0.4c1.6,0,3.2,0.3,4.6,0.9c0.6,0.3,1.3,0.3,1.9,0c1.3-0.7,3-0.9,4.6-0.9c1,0,2,0.1,3,0.4
	c1.3,0.3,2.5-0.6,2.5-1.9V7.1c0-0.8-0.5-1.5-1.2-1.8C20.5,4.7,19,4.5,17.5,4.5z M21,17.2c0,0.6-0.6,1.1-1.2,1
	C19,18.1,18.3,18,17.5,18c-1.7,0-4.1,0.6-5.5,1.5V8c1.4-0.8,3.8-1.5,5.5-1.5c0.9,0,1.8,0.1,2.7,0.3c0.5,0.1,0.8,0.5,0.8,1V17.2z"/>
<linearGradient id="SVGID_2_" gradientUnits="userSpaceOnUse" x1="16.5039" y1="16.9901" x2="16.5039" y2="14.99" gradientTransform="matrix(1 0 0 -1 0 26)">
	<stop  offset="0" style="stop-color:#DB671A"/>
	<stop  offset="1" style="stop-color:#F9951E"/>
</linearGradient>
<path class="st1" d="M14,11c-0.3,0-0.6-0.2-0.7-0.5c-0.1-0.4,0.1-0.8,0.5-0.9c1.5-0.5,3.5-0.7,5.4-0.4c0.4,0,0.7,0.4,0.7,0.8
	c0,0.4-0.4,0.7-0.8,0.7c-1.6-0.2-3.4,0-4.7,0.4C14.1,11,14,11,14,11z"/>
<linearGradient id="SVGID_3_" gradientUnits="userSpaceOnUse" x1="16.5039" y1="14.3301" x2="16.5039" y2="12.33" gradientTransform="matrix(1 0 0 -1 0 26)">
	<stop  offset="0" style="stop-color:#DB671A"/>
	<stop  offset="1" style="stop-color:#F9951E"/>
</linearGradient>
<path class="st2" d="M14,13.7c-0.3,0-0.6-0.2-0.7-0.5c-0.1-0.4,0.1-0.8,0.5-0.9c1.5-0.5,3.5-0.7,5.4-0.4c0.4,0.1,0.7,0.4,0.7,0.8
	c0,0.4-0.4,0.7-0.8,0.7c-1.6-0.2-3.4,0-4.7,0.4C14.1,13.7,14,13.7,14,13.7z"/>
<linearGradient id="SVGID_4_" gradientUnits="userSpaceOnUse" x1="16.5039" y1="11.6701" x2="16.5039" y2="9.67" gradientTransform="matrix(1 0 0 -1 0 26)">
	<stop  offset="0" style="stop-color:#DB671A"/>
	<stop  offset="1" style="stop-color:#F9951E"/>
</linearGradient>
<path class="st3" d="M14,16.3c-0.3,0-0.6-0.2-0.7-0.5c-0.1-0.4,0.1-0.8,0.5-0.9c1.5-0.5,3.5-0.7,5.4-0.4c0.4,0.1,0.7,0.4,0.7,0.8
	c0,0.4-0.4,0.7-0.8,0.7c-1.6-0.2-3.4,0-4.7,0.4C14.1,16.3,14,16.3,14,16.3z"/>
</svg>
