<?xml version="1.0" encoding="utf-8"?>
<!-- Generator: Adobe Illustrator 21.0.0, SVG Export Plug-In . SVG Version: 6.00 Build 0)  -->
<svg version="1.1" id="Camada_1" xmlns="http://www.w3.org/2000/svg" xmlns:xlink="http://www.w3.org/1999/xlink" x="0px" y="0px"
	 viewBox="0 0 48.4 40.5" style="enable-background:new 0 0 48.4 40.5;" xml:space="preserve">
<style type="text/css">
	.st0{fill:#F15A29;}
	.st1{fill:none;stroke:#000000;stroke-width:2.3539;stroke-miterlimit:10;}
</style>
<g>
	<g>
		<rect x="20.6" y="1.1" class="st0" width="26.5" height="38.2"/>
		<rect x="1.2" y="32.2" class="st0" width="18.3" height="2.6"/>
		<rect x="21.8" y="32.2" width="25.4" height="2.6"/>
		<rect x="1.2" y="1.1" class="st1" width="46" height="38.2"/>
	</g>
	<g>
		<path d="M4.4,8.9c1.1-0.2,3.4-0.4,5.5-0.4c2.6,0,4.2,0.3,5.5,1.1c1.3,0.7,2.3,2,2.3,3.7c0,1.7-1,3.2-3.1,4v0.1
			c2.1,0.6,3.7,2.2,3.7,4.6c0,1.7-0.8,3-1.9,4C15,27,12.7,27.6,9,27.6c-2.1,0-3.6-0.1-4.6-0.3V8.9z M8.6,16H10
			c2.2,0,3.4-0.9,3.4-2.3c0-1.4-1.1-2.2-3-2.2c-0.9,0-1.4,0.1-1.8,0.1V16z M8.6,24.4c0.4,0.1,0.9,0.1,1.6,0.1c1.9,0,3.6-0.7,3.6-2.7
			c0-1.9-1.7-2.6-3.8-2.6H8.6V24.4z"/>
	</g>
	<g>
		<path d="M40.8,19.2c-0.1-2.6-0.3-5.8-0.3-8.1h-0.1c-0.6,2.2-1.4,4.5-2.4,7.1l-3.3,9.1h-1.8l-3-8.9c-0.9-2.6-1.6-5.1-2.2-7.3h-0.1
			c-0.1,2.3-0.2,5.5-0.4,8.3l-0.5,8h-2.3l1.3-18.8h3.1l3.2,9.1c0.8,2.3,1.4,4.4,1.9,6.3H34c0.5-1.9,1.1-4,2-6.3l3.3-9.1h3.1
			l1.2,18.8h-2.4L40.8,19.2z"/>
	</g>
</g>
</svg>
