<?xml version="1.0" encoding="utf-8"?>
<!-- Generator: Adobe Illustrator 21.0.0, SVG Export Plug-In . SVG Version: 6.00 Build 0)  -->
<svg version="1.1" id="Camada_1" xmlns="http://www.w3.org/2000/svg" xmlns:xlink="http://www.w3.org/1999/xlink" x="0px" y="0px"
	 viewBox="0 0 1173.3 188.7" style="enable-background:new 0 0 1173.3 188.7;" xml:space="preserve">
<style type="text/css">
	.st0{fill:#F15A29;}
	.st1{fill:none;stroke:#000000;stroke-width:11;stroke-miterlimit:10;}
</style>
<g>
	<g>
		<rect x="496.9" y="5.4" class="st0" width="671" height="178.5"/>
		<rect x="5.5" y="150.4" class="st0" width="463.5" height="12"/>
		<rect x="524.9" y="150.4" width="643.1" height="12"/>
		<rect x="5.5" y="5.4" class="st1" width="1162.4" height="178.5"/>
	</g>
	<g>
		<path d="M33.3,47.3c5.2-1,15.7-1.8,25.6-1.8c12.1,0,19.5,1.2,25.9,4.9c6.1,3.3,10.5,9.2,10.5,17.2c0,7.8-4.6,15.1-14.4,18.7v0.3
			c10,2.7,17.4,10.3,17.4,21.6c0,7.9-3.6,14.2-9.1,18.6c-6.4,5.1-17,7.9-34.5,7.9c-9.8,0-17-0.7-21.5-1.3V47.3z M53,80.9h6.5
			c10.4,0,16-4.3,16-10.8c0-6.6-5.1-10.1-14-10.1c-4.3,0-6.8,0.3-8.5,0.5V80.9z M53,119.7c2,0.3,4.3,0.3,7.7,0.3
			c9,0,16.9-3.4,16.9-12.6c0-8.8-7.9-12.4-17.8-12.4H53V119.7z"/>
		<path d="M111.9,47.3c6.4-1,15.9-1.8,26.4-1.8c13,0,22.1,2,28.3,6.9c5.2,4.2,8.1,10.3,8.1,18.3c0,11.2-7.9,18.9-15.5,21.6v0.4
			c6.1,2.5,9.5,8.3,11.7,16.4c2.7,9.9,5.5,21.3,7.2,24.7h-20.3c-1.4-2.5-3.5-9.6-6.1-20.4c-2.3-10.9-6.1-13.9-14.2-14h-6v34.5h-19.6
			V47.3z M131.5,85h7.8c9.9,0,15.7-4.9,15.7-12.6c0-8.1-5.5-12.1-14.6-12.2c-4.8,0-7.5,0.4-9,0.7V85z"/>
		<path d="M208.1,46.2v50.4c0,15.1,5.7,22.8,15.9,22.8c10.4,0,16.1-7.3,16.1-22.8V46.2h19.8v49.1c0,27-13.7,39.9-36.5,39.9
			c-22.1,0-35.1-12.2-35.1-40.2V46.2H208.1z"/>
		<path d="M277,133.8V46.2h23.1l18.2,32.1c5.2,9.2,10.4,20.2,14.3,30h0.4c-1.3-11.6-1.7-23.4-1.7-36.5V46.2h18.2v87.6h-20.8L310,100
			c-5.2-9.4-10.9-20.7-15.2-30.9l-0.4,0.1c0.5,11.6,0.8,23.9,0.8,38.2v26.4H277z"/>
		<path d="M446.9,89.1c0,28.7-17.4,46.2-43,46.2c-26,0-41.2-19.6-41.2-44.6c0-26.3,16.8-45.9,42.6-45.9
			C432.2,44.7,446.9,64.9,446.9,89.1z M383.6,90.2c0,17.2,8.1,29.3,21.3,29.3c13.4,0,21.1-12.7,21.1-29.8c0-15.7-7.5-29.3-21.2-29.3
			C391.4,60.5,383.6,73.2,383.6,90.2z"/>
	</g>
	<g>
		<path d="M638.1,95.3c-0.7-12.2-1.4-26.9-1.3-37.8h-0.4c-3,10.3-6.6,21.2-11.1,33.3l-15.5,42.5h-8.6l-14.2-41.7
			c-4.2-12.3-7.7-23.7-10.1-34.1h-0.3c-0.3,10.9-0.9,25.6-1.7,38.7l-2.3,37.6h-10.8l6.1-87.6h14.4l15,42.4
			c3.6,10.8,6.6,20.4,8.8,29.5h0.4c2.2-8.8,5.3-18.5,9.2-29.5l15.6-42.4h14.4l5.5,87.6h-11L638.1,95.3z"/>
		<path d="M680,46.2v87.6h-11.3V46.2H680z"/>
		<path d="M699.8,133.8V46.2h12.4l28.1,44.3c6.5,10.3,11.6,19.5,15.7,28.5l0.3-0.1c-1-11.7-1.3-22.4-1.3-36V46.2h10.7v87.6h-11.4
			l-27.8-44.5c-6.1-9.8-12-19.8-16.4-29.3l-0.4,0.1c0.6,11.1,0.9,21.6,0.9,36.1v37.4H699.8z"/>
		<path d="M852,129.9c-5.1,1.8-15.1,4.8-26.9,4.8c-13.3,0-24.2-3.4-32.8-11.6c-7.5-7.3-12.2-19-12.2-32.6
			c0.1-26.1,18.1-45.2,47.5-45.2c10.1,0,18.1,2.2,21.8,4l-2.7,9.2c-4.7-2.1-10.5-3.8-19.4-3.8C806,54.7,792.1,68,792.1,90
			c0,22.2,13.4,35.4,33.8,35.4c7.4,0,12.5-1,15.1-2.3V96.9h-17.8v-9.1H852V129.9z"/>
		<path d="M869.3,47.3c5.7-1.2,13.9-1.8,21.7-1.8c12.1,0,19.9,2.2,25.4,7.2c4.4,3.9,6.9,9.9,6.9,16.6c0,11.6-7.3,19.2-16.5,22.4V92
			c6.8,2.3,10.8,8.6,12.9,17.7c2.9,12.2,4.9,20.7,6.8,24.1h-11.7c-1.4-2.5-3.4-10-5.8-20.9c-2.6-12.1-7.3-16.6-17.6-17h-10.7v38
			h-11.3V47.3z M880.6,87.2h11.6c12.1,0,19.8-6.6,19.8-16.6c0-11.3-8.2-16.3-20.2-16.4c-5.5,0-9.4,0.5-11.2,1V87.2z"/>
		<path d="M1014.5,89.1c0,30.2-18.3,46.2-40.7,46.2c-23.1,0-39.4-17.9-39.4-44.5c0-27.8,17.3-46,40.7-46
			C999.1,44.7,1014.5,63.1,1014.5,89.1z M946.5,90.5c0,18.7,10.1,35.5,28,35.5c17.9,0,28.1-16.5,28.1-36.4c0-17.4-9.1-35.6-28-35.6
			C955.9,54,946.5,71.2,946.5,90.5z"/>
		<path d="M1029.2,133.8V46.2h12.4l28.1,44.3c6.5,10.3,11.6,19.5,15.7,28.5l0.3-0.1c-1-11.7-1.3-22.4-1.3-36V46.2h10.7v87.6h-11.4
			l-27.8-44.5c-6.1-9.8-12-19.8-16.4-29.3l-0.4,0.1c0.6,11.1,0.9,21.6,0.9,36.1v37.4H1029.2z"/>
		<path d="M1126.1,46.2v87.6h-11.3V46.2H1126.1z"/>
	</g>
</g>
</svg>
